<svg width="36" height="36" viewBox="0 0 36 36" fill="none" xmlns="http://www.w3.org/2000/svg">
<path fill-rule="evenodd" clip-rule="evenodd" d="M16.2335 14.8764C16.4292 14.8095 16.6351 14.7776 16.8417 14.7822H17.3376L18.5446 14.8858L16.3364 8.45515C15.9858 7.34716 15.5381 6.27273 14.9984 5.24453C14.8128 4.8328 14.4251 4.55009 13.9785 4.50072C13.7053 4.4894 13.4436 4.61228 13.2767 4.83025C13.0877 5.08459 12.9948 5.39833 13.0148 5.71529C13.1119 6.84054 13.3541 7.94829 13.7352 9.01065C14.2124 10.583 14.9235 12.6355 15.8873 15.1777C15.9642 15.0397 16.0867 14.9331 16.2335 14.8764ZM18.6943 23.1807C19.0107 22.7803 19.3547 22.4028 19.7236 22.0509C20.0806 21.7235 20.4623 21.4245 20.8651 21.1564C20.303 21.1346 19.7433 21.0716 19.1903 20.9681C18.6781 20.8744 18.1742 20.739 17.6838 20.5632C17.9084 20.9963 18.0955 21.4389 18.2733 21.8814C18.4389 22.3058 18.5795 22.7396 18.6943 23.1807ZM22.8394 16.6371C24.0037 16.823 25.1162 17.2528 26.105 17.8987C26.4605 18.208 26.7013 18.6296 26.788 19.0944C26.9387 19.8092 27.0078 20.5389 26.9939 21.2694C27.0868 24.0347 26.1223 26.7305 24.2991 28.8016C22.6175 30.7443 20.1688 31.8401 17.609 31.7957C16.2374 31.8128 14.8802 31.5132 13.6417 30.9201C12.4536 30.3425 11.4228 29.483 10.6381 28.4156C10.1389 27.7786 9.72954 27.0752 9.42173 26.3254C9.1634 25.7305 9.02048 25.0913 9.00067 24.4423C8.98646 23.7824 9.19786 23.1376 9.59951 22.6158C9.89662 22.162 10.3891 21.8758 10.9282 21.8437C11.2646 21.9042 11.571 22.0766 11.7984 22.3333C12.2938 22.8045 12.7477 23.318 13.1551 23.868C13.5697 24.3838 13.948 24.9281 14.2873 25.4969C14.4954 25.8057 14.6357 26.1555 14.699 26.5231C14.6824 26.7349 14.5681 26.9266 14.3902 27.041C14.1939 27.2072 13.945 27.2973 13.6884 27.2952C12.9212 27.2952 12.1259 26.6644 11.1902 25.4121C10.8767 24.9915 10.6199 24.6688 10.435 24.4363L10.4349 24.4363L10.4349 24.4362L10.3948 24.3859C10.3114 24.466 10.2501 24.5666 10.2171 24.6777C10.1814 24.8096 10.1657 24.946 10.1703 25.0826C10.2527 26.0603 10.7337 26.9601 11.4989 27.5682C12.1777 28.3345 13.1289 28.8013 14.1469 28.8675C14.6701 28.8746 15.1759 28.6791 15.5598 28.3215C15.9419 27.9957 16.1611 27.5166 16.1586 27.0127C16.1657 26.8999 16.1657 26.7866 16.1586 26.6738C16.1485 26.6193 16.1335 26.5661 16.1184 26.5128C16.0918 26.4186 16.0651 26.324 16.0651 26.2218C16.1837 26.2642 16.3058 26.2957 16.43 26.316C16.5452 26.3257 16.661 26.3257 16.7762 26.316C16.8946 26.315 17.0118 26.2927 17.1224 26.2501C17.2362 26.1991 17.3406 26.129 17.4312 26.0429V26.2313C17.3916 27.1488 17.5713 28.0625 17.9552 28.8958C18.2008 29.489 18.751 29.898 19.3868 29.9597V29.7808V29.6302C19.3187 29.2234 19.2057 28.8255 19.0499 28.4439C18.8576 27.9184 18.7502 27.3653 18.7318 26.8056C18.7641 25.9642 19.0228 25.1474 19.4803 24.4423C19.9917 23.6005 20.6625 22.8679 21.4546 22.2862C21.9751 21.9445 22.5343 21.6664 23.1201 21.4577C23.6348 21.2864 24.1183 21.032 24.5517 20.7045C24.533 20.4707 24.4522 20.2464 24.3178 20.0548C24.206 19.9158 24.037 19.836 23.8593 19.8383H23.0172C21.3124 19.9267 19.6053 19.7132 17.9739 19.2074C17.0627 18.955 16.4286 18.1247 16.4206 17.1737C16.3842 16.8626 16.4951 16.5523 16.7201 16.3358C17.0317 16.1365 17.4004 16.047 17.768 16.0815C19.4737 16.0771 21.1746 16.2634 22.8394 16.6371ZM13.5668 22.2862C14.0604 22.9779 14.6319 23.6098 15.2698 24.1693C15.6106 24.5269 16.0568 24.7646 16.5423 24.8472C16.7903 24.8378 17.0222 24.7211 17.1785 24.5271C17.3557 24.3423 17.4561 24.0965 17.4593 23.8398C17.3535 23.2085 17.1647 22.5943 16.8978 22.0132C16.5117 21.0327 16.0422 20.0877 15.4943 19.1886C15.171 18.6133 14.7641 18.0897 14.2873 17.6351C13.9846 17.3289 13.583 17.1418 13.1551 17.1078C12.7849 17.1616 12.4497 17.3573 12.2194 17.6539C11.9259 17.9149 11.7419 18.2784 11.7048 18.6708C11.7673 19.1969 11.9395 19.7038 12.2101 20.1584C12.599 20.9066 13.053 21.6186 13.5668 22.2862ZM26.4979 6.41203C26.3438 7.43673 26.0868 8.44304 25.7307 9.41551C25.2441 11.0412 24.5299 13.0969 23.588 15.5825L21.0055 15.1306L23.0546 9.17071C23.3825 8.09794 23.8215 7.06284 24.3646 6.08249C24.7669 5.46108 25.1506 5.14096 25.5342 5.14096C25.8094 5.13274 26.0726 5.2547 26.2453 5.4705C26.4297 5.74806 26.5184 6.07882 26.4979 6.41203Z" fill="#525F75"/>
</svg>
