<svg width="36" height="36" viewBox="0 0 36 36" fill="none" xmlns="http://www.w3.org/2000/svg">
<path fill-rule="evenodd" clip-rule="evenodd" d="M28.5058 7.98387C27.2226 6.67742 25.3965 6 23.3235 6H13.1565C8.86258 6 6 8.80645 6 13.0161V22.9355C6 25.0161 6.69097 26.8064 8.0729 28.1129C9.40548 29.371 11.1823 30 13.2058 30H23.2742C25.3965 30 27.1732 29.3226 28.4564 28.1129C29.789 26.8548 30.48 25.0645 30.48 22.9839V13.0161C30.48 10.9839 29.789 9.24194 28.5058 7.98387ZM26.2355 11.6129C26.2355 12.3879 25.5947 13.0161 24.8042 13.0161C24.0137 13.0161 23.3729 12.3879 23.3729 11.6129C23.3729 10.8379 24.0137 10.2097 24.8042 10.2097C25.5947 10.2097 26.2355 10.8379 26.2355 11.6129ZM18.24 11.7581C14.7852 11.7581 11.9226 14.5161 11.9226 17.9516C11.9226 21.3871 14.7358 24.1452 18.24 24.1452C21.7442 24.1452 24.5574 21.3387 24.5574 17.9516C24.5574 14.5645 21.6948 11.7581 18.24 11.7581ZM18.24 21.9194C16.019 21.9194 14.1929 20.129 14.1929 17.9516C14.1929 15.7742 16.019 13.9839 18.24 13.9839C20.461 13.9839 22.2871 15.7742 22.2871 17.9516C22.2871 20.129 20.461 21.9194 18.24 21.9194ZM26.8771 26.5161C27.7655 25.6935 28.3084 24.4839 28.3084 22.9839V13.0161C28.3084 11.6129 27.8148 10.4032 26.9758 9.53226C26.0874 8.66129 24.8535 8.22581 23.3729 8.22581H13.2058C11.7252 8.22581 10.4419 8.66129 9.6029 9.48387C8.71452 10.3548 8.27032 11.5645 8.27032 13.0161V22.9355C8.27032 24.4355 8.71452 25.6452 9.6029 26.5161C10.4913 27.3387 11.7252 27.7742 13.2058 27.7742H23.2742C24.7548 27.7742 25.9887 27.3387 26.8771 26.5161Z" fill="#525F75"/>
</svg>
