<svg width="36" height="36" viewBox="0 0 36 36" fill="none" xmlns="http://www.w3.org/2000/svg">
<path fill-rule="evenodd" clip-rule="evenodd" d="M26.4493 26.4518H22.8933V20.8822C22.8933 19.5528 22.8667 17.8447 21.0427 17.8447C19.1907 17.8447 18.908 19.2914 18.908 20.7848V26.4518H15.352V14.9978H18.764V16.5619H18.812C19.288 15.6619 20.4493 14.7125 22.1813 14.7125C25.784 14.7125 26.4493 17.0846 26.4493 20.1701V26.4518ZM11.3387 13.4311C10.196 13.4311 9.27333 12.507 9.27333 11.367C9.27333 10.2282 10.196 9.30418 11.3387 9.30418C12.4773 9.30418 13.4027 10.2282 13.4027 11.367C13.4027 12.507 12.4773 13.4311 11.3387 13.4311ZM9.556 26.4518H13.12V14.9978H9.556V26.4518ZM28.2227 6H7.76933C6.79333 6 6 6.77471 6 7.7281V28.2692C6 29.2266 6.79333 30 7.76933 30H28.2227C29.2 30 30 29.2266 30 28.2692V7.7281C30 6.77471 29.2 6 28.2227 6Z" fill="#525F75"/>
</svg>
