<svg width="36" height="36" viewBox="0 0 36 36" fill="none" xmlns="http://www.w3.org/2000/svg">
<path d="M30.3411 9.98586C29.3911 10.4081 28.3688 10.693 27.2961 10.8204C28.3913 10.1647 29.2312 9.12612 29.6272 7.88712C28.6027 8.49508 27.4687 8.93623 26.2606 9.17438C25.2938 8.14415 23.9158 7.5 22.391 7.5C19.4634 7.5 17.0898 9.87361 17.0898 12.8017C17.0898 13.2166 17.1365 13.621 17.2273 14.0097C12.821 13.7884 8.91412 11.6781 6.29922 8.47043C5.84286 9.25306 5.58163 10.1637 5.58163 11.1362C5.58163 12.9753 6.51744 14.5983 7.94003 15.5488C7.07136 15.521 6.25358 15.2823 5.53862 14.8852C5.53809 14.9072 5.53809 14.9298 5.53809 14.9523C5.53809 17.5206 7.36564 19.6628 9.79118 20.1507C9.34636 20.2713 8.87793 20.3364 8.39429 20.3364C8.05228 20.3364 7.72024 20.3033 7.39659 20.2409C8.07169 22.347 10.0293 23.8803 12.3489 23.9227C10.5345 25.3448 8.24899 26.1925 5.7647 26.1925C5.33719 26.1925 4.91492 26.1673 4.5 26.118C6.84686 27.6229 9.63329 28.5 12.6269 28.5C22.3789 28.5 27.711 20.4219 27.711 13.4159C27.711 13.1862 27.7063 12.9569 27.6963 12.7293C28.7318 11.9834 29.6309 11.0491 30.3411 9.98586Z" fill="#525F75"/>
</svg>
